<svg id="Layer_1" data-name="Layer 1" xmlns="http://www.w3.org/2000/svg" viewBox="0 0 2362.61 544.04">
  <defs>
    <style>
      .cls-1,
      .cls-3 {
        fill: #fff;
      }
      .cls-1 {
        stroke: #fff;
        stroke-miterlimit: 10;
        stroke-width: 1.4px;
      }
      .cls-2,
      .cls-4 {
        fill: #003e7e;
      }
      .cls-4 {
        fill-rule: evenodd;
      }
      .cls-5 {
        fill: #e31837;
      }
      .cls-6 {
        fill: #869ec4;
      }
    </style>
  </defs>
  <title>Dwight Website Logo</title>
    <path class="cls-3" d="M244.78,190.25s4.45.47,6.2-.8c0,0,4.47,4-2.23,6.54C248.75,196,241.11,195.51,244.78,190.25Z" transform="translate(-86.84 -21.03)"/><path
    class="cls-2"
    d="M592.2,167.12c0-6.22-.75-40.16-1.26-44.23-.76-5.74-4-6.71-10.83-6.71H566.27c-1.25,0-2-.23-2-1.67v-6.45c0-1,.75-1.2,1.76-1.2,3.27,0,14.35.72,37,.72,6.55,0,31.7-.72,37.5-.72,32.45,0,59.63,3.58,81.77,21.52,16.37,13.4,27.94,33.24,27.94,61,0,27.49-8.3,45.67-24.91,62.88-24.16,25.34-58.87,25.34-78.25,25.34-15.86,0-35-.72-46.31-.72-21.89,0-32,.72-35.49.72-1.25,0-1.75-.46-1.75-1.67v-6.21c0-1,.76-1.44,2-1.44h16.85c4.78,0,7.55-1.92,8.06-5.74.75-5,1.76-58.82,1.76-77.47Zm23.16,23.2c0,3.12.24,43.75.5,58.58a21.69,21.69,0,0,0,4.27,13.41c4,5,14.1,7.64,26.68,7.64,25.65,0,46.54-10.53,59.13-25.82,10.56-12.44,18.36-32.06,18.36-53.81,0-18.65-8.55-40.17-20.63-52.84-13.09-13.65-35.23-23-63.16-23-5.53,0-15.86,0-20.12,2.39-3.54,2.16-4.53,6-4.79,11.24-.24,10.05-.24,41.37-.24,45.21Z"
    transform="translate(-86.84 -21.03)"/><path
    class="cls-2"
    d="M822.9,251.29h.42c.83-3.35,31.72-87.41,32.54-95.69.2-1.57-1.25-4.92-3.11-7.29a10,10,0,0,0-8.28-3.75h-5.2c-1,0-1.24-.38-1.24-1.57v-4.72c0-.77.22-1.36,1.45-1.36,1.86,0,9.12.59,25.3.59,17.4,0,25.28-.59,27.34-.59,1.25,0,1.46.59,1.46,1.36v4.93c0,.79-.21,1.36-1.46,1.36h-8.28c-5.17,0-7.05,4.34-5.8,7.89l32.33,98.84h.42c2.27-6.3,32.33-89.39,32.33-100.61,0-3.15-1.67-6.12-7.26-6.12h-5.59c-1.25,0-1.46-.57-1.46-1.76v-4.53c0-.77.21-1.36,1.65-1.36,2.08,0,9.34.59,22.19.59,11.59,0,17.6-.59,19.27-.59,1.25,0,1.46.38,1.46,1.36v4.93c0,.79,0,1.36-1.46,1.36h-5c-3.51,0-6.41,2.17-8.29,5.34-1.66,2.74-45,116.35-49.11,125.8-1,2.18-2.07,5.11-4.34,5.11-2.5,0-3.54-1.57-4.59-4.32L862.28,168.4h-.42C860,173.7,822.29,274.92,821,277.08c-1,1.95-2.28,3.73-4.13,3.73-1.65,0-2.9-.77-3.74-3.14L767,151.66c-2.07-5.51-5-7.1-8.93-7.1h-7c-1,0-1.25-.77-1.25-1.57v-4.72c0-1,.21-1.36,1.65-1.36,1.67,0,8.09.59,22.19.59,14.93,0,23.42-.59,25.5-.59,1.44,0,1.65.59,1.65,1.17V143c0,1-.21,1.57-1.65,1.57h-3.54c-5.38,0-7.26,2.76-6,7.1Z"
    transform="translate(-86.84 -21.03)"/><path
    class="cls-2"
    d="M1010.37,194.38c0-4.71-.63-40.16-.82-43.1-.43-4.73-2.5-6.72-10.38-6.72h-12c-1,0-1.66-.38-1.66-1.17v-5.31c0-.79.62-1.17,1.45-1.17,2.49,0,13.06.59,32.35.59,18.44,0,25.07-.59,28-.59a1.27,1.27,0,0,1,1.44,1.36v4.93c0,1-.63,1.36-1.67,1.36h-9.72c-4.15,0-7.28,1.59-7.28,5.53,0,2-.6,45.48-.6,47.84V213.1c0,2,.6,47.45.6,49.61,0,6.09,3.13,7.1,9.76,7.1h8.49c1,0,1.65.38,1.65,1.36v5.12c0,.79-.61,1.17-1.86,1.17-2.48,0-10.76-.59-28.8-.59-19.69,0-28.61.59-30.9.59-1,0-1.65-.38-1.65-1.17V271c0-.78.62-1.16,1.65-1.16H1000c4.15,0,8.51-.6,9.32-5.72.42-2.95,1-45.48,1-55.93Z"
    transform="translate(-86.84 -21.03)"/><path
    class="cls-2"
    d="M1176.11,233.36c0-7.06-2.27-9.05-8.49-9.05h-8.71c-1.05,0-1.46-.38-1.46-1.17v-4.92c0-1.18.22-1.58,1.26-1.58,2.9,0,12.23.59,26.31.59,14.93,0,21.58-.59,24.49-.59,1.44,0,1.67.59,1.67,1.37v4.73c0,.78-.23,1.57-1.46,1.57h-8.11c-3.71,0-6.42,1.39-6.42,7.48v26c0,2.76.83,4.71.83,6.3s-1.25,2.35-3.33,3.14c-16.79,8.07-33.37,12.6-56.58,12.6-18.46,0-43.7-6.5-58-22.44-12.66-13.58-19.08-30.33-19.08-54.15a66.6,66.6,0,0,1,23.42-50c14.71-12,33.35-18.69,58.22-18.69,17.82,0,33.77,6.29,40.84,11.42,2.27,1.77,3.51,1.36,4.76-.21l3.1-3.54c.84-.79,1.65-1.78,2.9-1.78,1.46,0,1.88,1,1.88,2.37l.62,37.62c0,1-.21,1.77-1,1.77l-3.73.39a1.76,1.76,0,0,1-1.67-1.57,64.23,64.23,0,0,0-12.43-23.25c-6.21-7.29-19.06-16.14-37.71-16.14-14.3,0-27.15,3.36-39.58,15.95-11.19,11.21-18.23,27.56-18.23,45.27,0,23.25,6.84,43.53,19.68,55.14a53,53,0,0,0,36.46,14c16.59,0,26.74-2.76,34-6.7,4.77-2.77,5.59-7.09,5.59-17.33Z"
    transform="translate(-86.84 -21.03)"/><path
    class="cls-2"
    d="M1237.21,199.32c0-12.22-.42-38.8-.42-41.94,0-10.06-1.44-12.82-9.1-12.82h-9.75c-1,0-1.24-.38-1.24-1.57v-4.72c0-1,.63-1.36,1.65-1.36,4.15,0,10.77.59,29,.59,16.14,0,23.62-.59,27.54-.59,1.44,0,2.07.17,2.07,1V143c0,1.19-.4,1.57-1.67,1.57h-10.55c-7,0-8,3.35-8,11.25,0,2.74-.41,28.72-.41,39.76v3.35c0,1,.61,1.58,2.45,1.58h76.68c3.11,0,4.15-.41,4.15-3v-2c0-11.21-.62-38.59-.62-40.95,0-6.31-.83-10.06-6.84-10.06h-10.78c-1,0-1.46-.38-1.46-1.36v-5.12c0-.79.21-1.17,1.25-1.17,4.36,0,13.26.59,27.36.59s22.59-.59,26.53-.59c1.44,0,1.65.38,1.65,1.57v4.72c0,1.19-.42,1.36-1.65,1.36h-9.32c-6,0-6.64,3.35-6.64,10.45,0,2.75-.41,36-.41,43.32V205c0,6.3.41,43.7.61,54.93,0,7.08,2.08,9.86,8.29,9.86h9.12c1.44,0,1.87.38,1.87,1.36v4.72c0,1.19-.43,1.57-1.66,1.57-3.94,0-11-.59-26.11-.59-18,0-24.68.59-30.89.59a1.21,1.21,0,0,1-1.23-1.36v-4.93c0-1,.41-1.36,1.65-1.36h13c5,0,5.61-3.75,5.61-9.09.21-9.23.62-40.93.62-48v-2.76c0-2.16-1-2.37-4.58-2.37h-75.84c-2.25,0-2.86.59-2.86,2v4.13c0,5.3.19,35.63.41,49.4.2,4.73,2.26,6.72,6.6,6.72h10.14c1.25,0,1.67.38,1.67,1.36v4.93c0,1-.42,1.36-1.67,1.36-3.92,0-11.18-.59-26.08-.59-17.81,0-24,.59-28.79.59-1,0-1.44-.38-1.44-1.36V271c0-.78.63-1.16,1.44-1.16h12.21c5.19,0,5.81-4.75,5.81-9.47.21-9.26.63-47.44.63-52.56Z"
    transform="translate(-86.84 -21.03)"/><path
    class="cls-2"
    d="M1441.53,144.56h-5.19c-6.63,0-24.66,0-32.73,2.37-9.34,2.76-15.56,16.54-18.45,22.85-.42,1-1,1.17-2.07,1l-3.73-1c-.63-.19-1.25-.4-.84-1.57,2.07-7.1,9.33-32.49,9.74-34.67.42-2.55,1.24-3.14,2.09-3.14a3.62,3.62,0,0,1,2.46.79l2.71,1.78c3.73,2.54,5.8,3.14,11.82,3.34,11,.39,19.67,1.19,39.17,1.19h10c22.57,0,31.49-.8,41.65-1.19,4.55-.2,7.26-.8,10.77-2.77l3.95-2.35a4.47,4.47,0,0,1,2.49-.79c1,0,1.45.59,1.85,3.14.42,2.37,4.36,26.79,6,35.45.23,1-.19,1.38-1.23,1.57l-3.32.79c-.83.19-1,0-1.66-1.38-1.65-3.75-7.87-18.9-14.73-22.06-6.21-2.93-25.68-3.35-35.83-3.35h-5.82v56.12c0,2.76,0,57.88.21,61.23.42,4.93,2.07,7.9,7,7.9h13.06c1.85,0,2.08.57,2.08,1.95v4.13c0,1-.23,1.57-2.08,1.57-2.07,0-8.7-.59-29-.59-19.89,0-28.59.59-31.51.59-1.65,0-1.86-.77-1.86-1.95v-3.75c0-1.38.21-1.95,1.46-1.95h14.08c4.15,0,6.64-2.38,6.84-4.75.63-5.7.63-66.14.63-69.89Z"
    transform="translate(-86.84 -21.03)"/><path
    class="cls-2"
    d="M1599.15,268c-3-2.16-4.52-2.86-5.79-2.86-1.5,0-2.51,1.66-4,4.05-1.49,2.63-2.76,2.88-4.52,2.88-1.52,0-2.77-1.2-2.28-3.84,1-6,3.53-36.35,4.3-43.27.24-1.43.75-1.43,1.76-1.43l3.76.23c1,0,1.51.48,1.51,1.92.26,7.64.77,15.54,9.07,27.73,7.54,11.23,21.38,17.69,35.23,17.69,15.09,0,34.21-8.83,34.21-30.36,0-24.64-18.61-33.72-38.75-40.42-7.8-2.63-25.92-8.6-36.73-19.37-8.3-7.88-12.59-19.13-12.59-34.9,0-12,7.8-23.68,15.6-30.62,9.07-8.13,21.64-11.48,35.24-11.48a75.67,75.67,0,0,1,29.69,6c2.26,1.19,3.52,1,4.79-.23l3.27-2.88c1.25-1,2-1.44,3.26-1.44s2,1.92,2,4.07c0,8.38,3.28,32.77,3.54,38,0,1.2-.26,1.67-1.27,1.92l-3,.72a1.07,1.07,0,0,1-1.5-.72,56.92,56.92,0,0,0-15.61-26.54c-6.79-6.94-15.6-10.29-27.42-10.29-22.4,0-30.44,15.78-30.44,28,0,6.72,1.51,14.6,7.79,20.81,7.3,6.94,21.38,12.19,28.69,14.34,17.36,5.27,31.44,9.34,40.51,19.87,6.54,7.4,11.07,16.74,11.07,32.52,0,28.21-18.12,52.36-51.33,52.36C1621.54,280.47,1609.21,275.44,1599.15,268Z"
    transform="translate(-86.84 -21.03)"/><path
    class="cls-2"
    d="M1728.17,261.73c-14.91-13.41-22.17-36.23-22.17-55.14,0-18.31,6.21-37.21,21.14-52.17,10.56-10.63,29.22-19.88,51.81-19.88a89.53,89.53,0,0,1,41.86,10.82c2.69,1.57,3.73,1.37,4.15,0l1.67-5.7c.41-1.18.81-1.18,2.69-1.18s2.27.38,2.27,3.14c0,3.74,4.14,32.68,5.18,38.2.22,1,0,1.78-.82,2l-3.12.8c-1,.19-1.44,0-2.07-1.57-2.9-6.51-7.45-16-16.16-24.43s-19.69-15.16-36.06-15.16c-37.11,0-52,31.31-51.83,60.06,0,11.42,3.75,33.66,19.9,50.59,14.11,15,25.92,16.55,39.79,16.55,23.44,0,41.67-12.22,51.2-25,.63-1,1-1.19,1.67-.6l2.69,2c.62.39,1,.79.4,1.76-12.42,17.14-32.52,33.08-61.74,33.08C1756.14,279.83,1740.6,272.54,1728.17,261.73Z"
    transform="translate(-86.84 -21.03)"/><path
    class="cls-2"
    d="M1869.26,199.32c0-12.22-.4-38.8-.4-41.94,0-10.06-1.46-12.82-9.14-12.82H1850c-1,0-1.25-.38-1.25-1.57v-4.72c0-1,.61-1.36,1.65-1.36,4.15,0,10.78.59,29,.59,16.16,0,23.63-.59,27.57-.59,1.44,0,2,.17,2,1V143c0,1.19-.4,1.57-1.65,1.57h-10.57c-7,0-8.08,3.35-8.08,11.25,0,2.74-.41,28.72-.41,39.76v3.35c0,1,.62,1.58,2.48,1.58h76.68c3.11,0,4.15-.41,4.15-3v-2c0-11.21-.62-38.59-.62-40.95,0-6.31-.83-10.06-6.84-10.06h-10.77c-1,0-1.45-.38-1.45-1.36v-5.12c0-.79.19-1.17,1.23-1.17,4.36,0,13.26.59,27.36.59s22.61-.59,26.53-.59c1.44,0,1.67.38,1.67,1.57v4.72c0,1.19-.42,1.36-1.67,1.36h-9.32c-6,0-6.64,3.35-6.64,10.45,0,2.75-.41,36-.41,43.32V205c0,6.3.41,43.7.62,54.93,0,7.08,2.07,9.86,8.28,9.86h9.14c1.44,0,1.85.38,1.85,1.36v4.72c0,1.19-.41,1.57-1.66,1.57-3.93,0-11-.59-26.1-.59-18,0-24.67.59-30.88.59a1.21,1.21,0,0,1-1.25-1.36v-4.93c0-1,.41-1.36,1.66-1.36h13c5,0,5.61-3.75,5.61-9.09.21-9.23.62-40.93.62-48v-2.76c0-2.16-1-2.37-4.56-2.37h-75.85c-2.28,0-2.9.59-2.9,2v4.13c0,5.3.2,35.63.41,49.4.21,4.73,2.28,6.72,6.63,6.72h10.16c1.23,0,1.65.38,1.65,1.36v4.93c0,1-.42,1.36-1.65,1.36-3.94,0-11.2-.59-26.11-.59-17.83,0-24,.59-28.81.59-1,0-1.45-.38-1.45-1.36V271c0-.78.61-1.16,1.45-1.16h12.23c5.17,0,5.8-4.75,5.8-9.47.21-9.26.61-47.44.61-52.56Z"
    transform="translate(-86.84 -21.03)"/><path
    class="cls-2"
    d="M2042.85,267c-14.73-8.47-30.47-29.73-30.47-58.45,0-12,3.31-30.73,19.27-49,18.25-21.06,38.75-25,56.16-25,13.06,0,30.06,2.54,46.43,15.55,15.14,12.4,28.4,31.69,28.4,58.87,0,14.37-4.77,29.34-15.55,43.11-12.64,16-31.1,27.76-59.69,27.76C2077.24,279.83,2059.2,276.69,2042.85,267Zm99.48-56.5c0-43.12-32.35-68.51-55.35-68.51-3.11,0-17.19-2.36-32.74,11.61-13.89,12.59-20.73,32.49-20.73,48.64,0,51.77,37.93,70.08,55.54,70.08C2134.65,272.35,2142.33,228,2142.33,210.53Z"
    transform="translate(-86.84 -21.03)"/><path
    class="cls-2"
    d="M2204.71,267c-14.71-8.47-30.47-29.73-30.47-58.45,0-12,3.32-30.73,19.27-49,18.25-21.06,38.77-25,56.18-25,13,0,30,2.54,46.43,15.55,15.12,12.4,28.38,31.69,28.38,58.87,0,14.37-4.77,29.34-15.53,43.11-12.66,16-31.1,27.76-59.69,27.76C2239.12,279.83,2221.08,276.69,2204.71,267Zm99.48-56.5c0-43.12-32.33-68.51-55.33-68.51-3.11,0-17.21-2.36-32.74,11.61-13.89,12.59-20.73,32.49-20.73,48.64,0,51.77,37.91,70.08,55.54,70.08C2296.52,272.35,2304.19,228,2304.19,210.53Z"
    transform="translate(-86.84 -21.03)"/><path
    class="cls-2"
    d="M2344.66,188.68c0-12.61-.42-33.46-.61-37-.42-5.11-1.46-7.1-7.67-7.1h-9.74c-1.25,0-1.45-1-1.45-1.95v-4.34c0-1,.2-1.36,1.45-1.36,2.29,0,9.74.59,26.94.59,20.11,0,28.8-.59,30.68-.59,1.65,0,1.86.59,1.86,1.57V143c0,1-.42,1.57-2.09,1.57h-12.41c-6.44,0-7.26,2-7.26,7.69,0,2.55-.62,32.28-.62,46.08v16.93c0,3.35,0,45.88.62,53.95,4.55.39,45.59.77,52,0,12.22-1.78,24.67-25.4,27.57-33.09.41-.77.81-1.19,1.65-.77l3.31,1.17c.63.4.63.59.42,1.78-.62,1.37-8.92,33.84-10.16,39.16-2.69-.17-18.85-.38-37.29-.38-18.45-.21-38.77-.21-50-.21-8.07,0-14.08.21-18.43.21-4.15.21-6.64.38-8.09.38s-1.65-.38-1.65-1.36v-4.93c0-1,.2-1.36,1.45-1.36h9.95c7.66,0,8.91-2.78,8.91-5.34,0-3.75.61-52.75.61-64.77Z"
    transform="translate(-86.84 -21.03)"/><path
    class="cls-6"
    d="M1306.53,385.27c2.4-8.6-.35-11.35-4.82-11.35h-7.91c-1.38,0-1.72-.35-1.72-1.38l1-4.47c0-.69.69-1,2.07-1,2.06,0,11.35.51,25.11.51,14.79,0,22-.51,24.42-.51,1.72,0,2.41.68,2.06,2.06l-1,3.44c0,.69-.34,1.38-1.72,1.38h-4.47c-7.22,0-11.18,1.72-13.76,11.52l-21.33,79.29c-2.23,8.26.35,11.7,7.57,11.7h6.19c1,0,1.38.69,1,1.72l-.34,3.44c-.34,1.37-.34,1.72-2.06,1.72-2.07,0-10-.52-27.52-.52-14.45,0-23.39.52-25.46.52-1,0-1.37-.69-1.37-1.72l1-3.79c0-1,.34-1.37,1.37-1.37h6.54c10,0,11-3.44,13.42-12.21Z"
    transform="translate(-86.84 -21.03)"/><path
    class="cls-6"
    d="M1369.82,384.75a27.73,27.73,0,0,0,1-6.36c0-2.75-3.09-4.47-7.91-4.47h-4.81c-1,0-1.38-.69-1.21-1.38l.69-4c.17-1,.86-1,2.24-1h13.07c4.64,0,9.11-.17,13.59-.34,4.47,0,9.11-.17,13.58-.17,4.13,0,19.1,0,28.21,5.67a21.24,21.24,0,0,1,10.32,18.23c0,21-18.57,29.93-35.77,33-.69,0-.69.34-.35.69,16.17,4.12,25.46,13.41,25.46,27.86a28.67,28.67,0,0,1-9.63,20.47c-6.54,5.84-17.2,10.32-38.19,10.32-8.25,0-16.85-.52-25.11-.52-7.91,0-16.17.52-24.08.52-1,0-1.72-.35-1.37-1.72l.68-3.79a1.26,1.26,0,0,1,1.38-1.37h6.19c5.85,0,8.6-3.79,10.32-10.15Zm-2.06,80.5c-1.38,5.16-1.38,8.25,1.72,10,2.06,1.38,7.57,2.07,10.66,2.07,18.23,0,27.52-13.76,27.52-27.87,0-17.88-16.85-22.36-27.52-22.7h-2.06Zm11.69-45.07a39.22,39.22,0,0,0,8.6.69c15.83,0,31-8.25,31.31-28.55,0-10.32-9.63-19.26-21.67-19.26a28.16,28.16,0,0,0-5.51.34Z"
    transform="translate(-86.84 -21.03)"/><path
    class="cls-6"
    d="M1512.06,452.86c-.34,2.07,1,2.76,2.76.69,1-1,39.21-56.07,39.9-57.1,4.13-6.19,6.19-13.07,6.19-16.69,0-3.43-1.37-5.84-4.47-5.84H1554c-1,0-1.37-.35-1.37-1.21l.68-4.64c.35-.69.69-1,2.07-1,1.72,0,6.19.51,16.85.51,10,0,14.45-.51,16.52-.51,1.37,0,1.72.34,1.54,1.37l-.51,4.13c-.35,1-.69,1.38-2.07,1.38H1585c-3.09,0-4.82,2.06-5.5,8.08l-8.6,71.55c-.35,3.1.69,3.44,2.41,1.38,3.44-3.79,20.29-31.65,23.73-37.5,8.26-13.76,15.82-29.93,17.37-34.57,1.55-4.47,1.21-8.94-4-8.94h-2.76c-1,0-1.72-.35-1.37-1.55l.69-3.61c0-1.38.68-1.72,1.72-1.72,2.4,0,6.53.51,15.48.51,10.32,0,14.79-.51,17.2-.51,1.37,0,1.89.34,1.72,1.2l-.69,4.3c-.35,1-.69,1.38-1.38,1.38H1638a10.61,10.61,0,0,0-9,4.64c-1.72,2.41-27.52,45.06-31.64,51.94-4.82,7.92-27.35,41.11-34.75,50.23-2.23,2.75-4.3,5.5-7.05,5.5s-3.44-2.41-3.1-6.19l5-72.24c.35-2.06-1-2.06-2.41-.34-1.72,2.4-48.16,66.9-54.52,74.3-2.06,2.41-3.78,4.47-6.54,4.47-2.23,0-3.09-2.41-2.4-7.22l12.21-96.15c.69-5.85,0-8.94-3.79-8.94h-4.12c-1.38,0-1.72-.35-1.55-1.55l.51-4c.35-1,.69-1.37,2.07-1.37,1.72,0,8.6.51,20,.51,10.66,0,17.2-.51,19.26-.51,1.72,0,2.07.34,1.72,1.54l-.68,4c0,.69-.35,1.38-1.72,1.38h-2.76c-5.5,0-7.91,2.06-9.11,9.11Z"
    transform="translate(-86.84 -21.03)"/><path
    class="cls-6"
    d="M1606,461c0-14.45,4.82-28.21,14.45-38.7,6.88-7.57,15.13-11,24.42-11,10,0,21.33,6.19,21.33,21.67,0,11-4.47,28.9-14.79,40.25-6.54,7.57-14.45,11.35-24.77,11.35C1616.47,484.51,1606,476.77,1606,461Zm37.84-1.72c6.36-10.84,11.69-25.11,11.69-31.31,0-3.78-2.4-7.74-7.39-7.74-7,0-13.59,6-22,20.13-5.67,9.63-9.11,19.95-9.11,26.83,0,4.64,3.44,8.08,7.22,8.08C1630.92,475.22,1637.11,470.41,1643.82,459.23Z"
    transform="translate(-86.84 -21.03)"/><path
    class="cls-6"
    d="M1679.59,482.79c-1,0-1.72-.69-1.37-1.37l8.6-27.87c2.58-8.6,8.25-26.14,8.25-29.24a3,3,0,0,0-3.09-2.75c-3.1,0-10,6.54-12.39,10-.34.68-1,.68-1.72.34l-2.06-1.38a1.51,1.51,0,0,1,0-1.72c3.1-5.16,13.07-17.54,27.17-17.54,5.16,0,6.88,3.44,6.88,6.54s-3.09,12-6.88,23.39l1.21.69c4.47-9.64,16.68-30.62,28-30.62,4.82,0,9,3.44,9,8.6s-4.13,9.63-7.23,9.63a8.32,8.32,0,0,1-5.16-1.37c-1.37-1-2.4-2.07-4.81-2.07-4.82,0-14.45,14.11-19.61,24.08a128.49,128.49,0,0,0-5.5,14.11L1693,481.76a2.07,2.07,0,0,1-2.07,1Z"
    transform="translate(-86.84 -21.03)"/><path
    class="cls-6"
    d="M1772.3,383.38c2.23-6,2.06-10.5-3.1-10.5h-5.5c-.69,0-.86-.51-.69-1.37l1-4c.17-.51.52-.86,1.38-.86h26.49c1.54,0,1.89,1,1.37,2.58l-34.74,93.91c-1.72,4.48-3.44,10.32,0,10.32s10.32-6.53,12.38-8.94c.69-.34,1-.34,1.72.34l2.07,1.72c.34.69.68,1,0,2.07s-15.48,15.82-30.62,15.82a6.1,6.1,0,0,1-5.85-6.19c0-2.75,3.79-12.38,5.51-17.2Z"
    transform="translate(-86.84 -21.03)"/><path
    class="cls-6"
    d="M1872.4,366.69c2.41,0,3.1,1.72,2.58,2.93-2.58,6.19-30.1,86.34-32.85,97-1,5.16-1.38,7.57,1,7.57,2.75,0,10-7.57,11-8.6.69-.69,1.37-.69,1.89-.17l2.24,1.89a1.55,1.55,0,0,1,0,1.72c-1.38,1.72-13.76,15.48-27.52,15.48-3.79,0-5.85-1.38-5.85-4.47,0-4.13,3.44-14.45,6.88-24.08l-1.72-.69c-8.26,13.42-21.67,29.24-34.06,29.24-7.57,0-12.73-6.88-12.73-14.1,0-12,7.92-31.65,22.19-45.93,4.47-4.47,13.59-13.24,25.63-13.24a16,16,0,0,1,12.21,5.5l11.53-37.32c1-3.09,0-6.54-4.48-6.54h-5.16c-1.37,0-1.72-.68-1.37-1l.69-4.13c.34-.68.68-1,2.75-1Zm-43.69,50.74c-12,0-27.86,36.47-27.86,50.57,0,3.78,2.06,5.85,4.47,5.85,5.16,0,15.14-12.39,21.67-21.67,4.82-6.54,11-17.89,11-24.77C1838,422.08,1834.73,417.43,1828.71,417.43Z"
    transform="translate(-86.84 -21.03)"/><path
    class="cls-6"
    d="M1982.13,401.09c-.34.69-.68,1-1.37,1h-3.1c-1.37,0-1.72-.68-1.72-1.72,1-6.88-1-27.52-18.57-27.52-10,0-15.48,9.29-15.48,16.69,0,12,7.57,17.54,15.48,25.45s19.26,17.55,19.26,36.64c0,22-15.82,33.71-33.71,33.71-11,0-18.92-6.54-24.42-12.73-1.72-1.72-3.44-1.37-4.48-.34a75.09,75.09,0,0,0-4.12,6.53c-.35.69-.69,1-1.72.69l-2.07-1c-1-.34-1-.34-.69-1.72l12.73-37.49c.35-.69.69-.69,1.72-.69l2.75.69a1.58,1.58,0,0,1,1,1.72c-4.82,24.76,8.59,36.46,19.26,36.46a18.17,18.17,0,0,0,18.58-18.06c0-11-8.61-17.54-16.17-25.8-10.67-11.7-19.61-20.64-19.61-38.36,0-12.38,9.63-30.27,32-30.27,9.29,0,17.54,5.85,20.3,7.91a4.86,4.86,0,0,0,2.4.69c1,0,2.07-2.4,2.76-5.85,0-.68.34-.68,1.72-.68l2.06.34c1,0,1.38.34,1.38,1Z"
    transform="translate(-86.84 -21.03)"/><path
    class="cls-6"
    d="M2031.5,468c.69.34,1,.69.34,1.72-2.58,3.78-13.76,14.79-26.49,14.79-6.88,0-15.47-5.33-15.47-17,0-24.08,18.74-56.24,40.07-56.24,8.94,0,11.87,6.54,11.87,9.63,0,4.82-3.79,8.6-7.23,8.6-2.75,0-4.81-1-5.84-4.13-1-2.4-2.58-5.16-5.34-5.16-3.78,0-7.05,4.13-10.32,11.7-4.3,10.32-6.7,21-6.7,30.27,0,8.6,2.58,12.39,7,12.39,5.5,0,12.21-5.16,14.27-7.57.35-.69,1-1,1.38-.69Z"
    transform="translate(-86.84 -21.03)"/><path
    class="cls-6"
    d="M2071.57,436.35c8.26-12.38,19.61-25.11,32.68-25.11,10.67,0,13.76,8.26,13.76,16,0,12.55-5.16,27-11.35,38-7.57,13.76-17.2,23-28.55,23-5.5,0-10-3.78-10-9.28,0-4.13,2.76-8.6,7.23-8.6,4.13,0,5.85,3.09,6.19,5.84.34,2.41,1,4.65,3.44,4.65,3.78,0,7.57-10.84,10.32-19.78,3.44-10,6.53-22.7,6.53-30.79,0-3.95-1-8.08-5.15-8.08-7.57,0-20.3,14.45-25.12,20.64a68.23,68.23,0,0,0-9.63,17.54l-8.94,21c-.35,1-.86,1.37-2.07,1.37h-11c-1.55,0-1.9-1-1.38-2.41l36.81-96c1.37-3.61,2.23-6.54,2.23-8.08,0-2.07-2.23-3.45-5.33-3.45h-5.16a1.2,1.2,0,0,1-1-1.71l.69-3.1c.34-1,.69-1.38,2.41-1.38h27.17c1.38,0,2.07.69,2.07,1.72s-.69,2.76-1.72,5.34l-26.15,61.57Z"
    transform="translate(-86.84 -21.03)"/><path
    class="cls-6"
    d="M2127,461c0-14.45,4.81-28.21,14.45-38.7,6.87-7.57,15.13-11,24.42-11,10,0,21.33,6.19,21.33,21.67,0,11-4.48,28.9-14.8,40.25-6.53,7.57-14.44,11.35-24.76,11.35C2137.45,484.51,2127,476.77,2127,461Zm37.84-1.72c6.36-10.84,11.69-25.11,11.69-31.31,0-3.78-2.41-7.74-7.39-7.74-7.06,0-13.59,6-22,20.13-5.67,9.63-9.12,19.95-9.12,26.83,0,4.64,3.45,8.08,7.23,8.08C2151.9,475.22,2158.09,470.41,2164.8,459.23Z"
    transform="translate(-86.84 -21.03)"/><path
    class="cls-6"
    d="M2195.76,461c0-14.45,4.81-28.21,14.44-38.7,6.88-7.57,15.14-11,24.43-11,10,0,21.33,6.19,21.33,21.67,0,11-4.48,28.9-14.8,40.25-6.53,7.57-14.44,11.35-24.76,11.35C2206.25,484.51,2195.76,476.77,2195.76,461Zm37.83-1.72c6.37-10.84,11.7-25.11,11.7-31.31,0-3.78-2.41-7.74-7.39-7.74-7.06,0-13.59,6-22,20.13-5.68,9.63-9.12,19.95-9.12,26.83,0,4.64,3.44,8.08,7.23,8.08C2220.7,475.22,2226.89,470.41,2233.59,459.23Z"
    transform="translate(-86.84 -21.03)"/><path
    class="cls-6"
    d="M2296,383.38c2.24-6,2.06-10.5-3.1-10.5h-5.5c-.69,0-.86-.51-.69-1.37l1-4a1.24,1.24,0,0,1,1.38-.86h26.49c1.55,0,1.89,1,1.37,2.58l-34.74,93.91c-1.72,4.48-3.44,10.32,0,10.32s10.32-6.53,12.38-8.94c.69-.34,1-.34,1.72.34l2.07,1.72c.34.69.69,1,0,2.07s-15.48,15.82-30.62,15.82a6.1,6.1,0,0,1-5.84-6.19c0-2.75,3.78-12.38,5.5-17.2Z"
    transform="translate(-86.84 -21.03)"/></svg>
